<svg width="482" height="630" viewBox="0 0 482 630" fill="none" xmlns="http://www.w3.org/2000/svg">
<g filter="url(#filter0_d_388_484)">
<path d="M466 622C472.627 622 478 616.627 478 610L478 12C478 5.37256 472.627 6.40674e-08 466 1.43099e-07L258.585 2.6165e-06C253.952 2.67174e-06 249.733 2.66669 247.746 6.85132L225.754 53.1487C223.767 57.3333 219.548 60 214.915 60L8.99999 60C6.23858 60 3.99999 62.2386 3.99999 65L4 610C4 616.627 9.37259 622 16 622L466 622Z" fill="#1E2329"/>
<path d="M477 610L477 12C477 5.92484 472.075 1 466 1L258.585 1C254.338 1 250.47 3.44436 248.648 7.28028L226.657 53.5781C224.504 58.1112 219.934 61 214.915 61L8.99999 61C6.79086 61 4.99999 62.7909 4.99999 65L5 610C5 616.075 9.92487 621 16 621L466 621C472.075 621 477 616.075 477 610Z" stroke="url(#paint0_linear_388_484)" stroke-opacity="0.6" stroke-width="2"/>
<path d="M477 610L477 12C477 5.92484 472.075 1 466 1L258.585 1C254.338 1 250.47 3.44436 248.648 7.28028L226.657 53.5781C224.504 58.1112 219.934 61 214.915 61L8.99999 61C6.79086 61 4.99999 62.7909 4.99999 65L5 610C5 616.075 9.92487 621 16 621L466 621C472.075 621 477 616.075 477 610Z" stroke="white" stroke-opacity="0.1" stroke-width="2"/>
</g>
<defs>
<filter id="filter0_d_388_484" x="0" y="0" width="482" height="630" filterUnits="userSpaceOnUse" color-interpolation-filters="sRGB">
<feFlood flood-opacity="0" result="BackgroundImageFix"/>
<feColorMatrix in="SourceAlpha" type="matrix" values="0 0 0 0 0 0 0 0 0 0 0 0 0 0 0 0 0 0 127 0" result="hardAlpha"/>
<feOffset dy="4"/>
<feGaussianBlur stdDeviation="2"/>
<feComposite in2="hardAlpha" operator="out"/>
<feColorMatrix type="matrix" values="0 0 0 0 0 0 0 0 0 0 0 0 0 0 0 0 0 0 0.25 0"/>
<feBlend mode="normal" in2="BackgroundImageFix" result="effect1_dropShadow_388_484"/>
<feBlend mode="normal" in="SourceGraphic" in2="effect1_dropShadow_388_484" result="shape"/>
</filter>
<linearGradient id="paint0_linear_388_484" x1="-186.75" y1="-27.25" x2="723.25" y2="565.25" gradientUnits="userSpaceOnUse">
<stop offset="0.126517" stop-color="white"/>
<stop offset="0.41336" stop-color="white" stop-opacity="0"/>
<stop offset="0.701226" stop-color="white" stop-opacity="0"/>
<stop offset="1" stop-color="white"/>
</linearGradient>
</defs>
</svg>
