<svg width="15" height="16" viewBox="0 0 15 16" fill="none" xmlns="http://www.w3.org/2000/svg">
<path d="M10.7992 13.3999C10.7992 12.1269 10.2935 10.906 9.39333 10.0058C8.49316 9.10566 7.27226 8.59995 5.99922 8.59995M5.99922 8.59995C4.72618 8.59995 3.50528 9.10566 2.60511 10.0058C1.70493 10.906 1.19922 12.1269 1.19922 13.3999M5.99922 8.59995C7.65607 8.59995 8.99922 7.2568 8.99922 5.59995C8.99922 3.94309 7.65607 2.59995 5.99922 2.59995C4.34236 2.59995 2.99922 3.94309 2.99922 5.59995C2.99922 7.2568 4.34236 8.59995 5.99922 8.59995ZM13.1992 12.7999C13.1992 10.7779 11.9992 8.89995 10.7992 7.99995C11.1937 7.70401 11.5091 7.3154 11.7176 6.86851C11.926 6.42162 12.0211 5.93023 11.9944 5.43783C11.9677 4.94542 11.8201 4.4672 11.5645 4.04546C11.3089 3.62373 10.9534 3.2715 10.5292 3.01995" stroke="white" stroke-width="1.2" stroke-linecap="round" stroke-linejoin="round"/>
</svg>
